<svg width="31" height="36" viewBox="0 0 31 36" fill="none" xmlns="http://www.w3.org/2000/svg">
<path d="M4.5072 13.2463C3.96007 13.2463 3.50413 13.2463 3.04819 13.2463C2.50106 13.2463 2.04511 13.0827 1.86274 12.5919C1.68036 12.1011 1.95393 11.7739 2.31868 11.4467C4.96314 9.15633 7.69879 6.78414 10.3432 4.49376C11.2551 3.67576 12.2582 2.85777 13.1701 2.03977C14.7203 0.649182 16.6352 0.649182 18.1854 2.12157C18.8238 2.69417 19.4621 3.26677 20.1004 3.92116C20.6475 2.69417 20.6475 2.61237 22.1065 2.61237C23.2008 2.61237 24.295 2.61237 25.3893 2.61237C26.3924 2.61237 26.7571 2.93957 26.7571 3.83936C26.7571 5.55715 26.7571 7.35674 26.7571 9.07453C26.7571 9.31993 26.9395 9.64712 27.1219 9.89252C27.7602 10.4651 28.3985 11.0377 29.0368 11.5285C29.4016 11.8557 29.584 12.1829 29.4016 12.5919C29.2192 13.0827 28.8545 13.2463 28.3073 13.2463C27.8514 13.2463 27.3954 13.2463 26.8483 13.2463C26.8483 13.4099 26.8483 13.6553 26.8483 13.8189C26.8483 14.8823 26.8483 15.9457 26.8483 17.0091C26.8483 17.6635 26.3924 18.0725 25.8452 18.0725C25.2069 18.0725 24.751 17.6635 24.751 17.0091C24.751 15.9457 24.751 14.9641 24.751 13.9007C24.751 13.6553 24.751 13.4917 24.751 13.2463C18.7326 13.2463 12.8053 13.2463 6.87809 13.2463C6.87809 13.4099 6.87809 13.6553 6.87809 13.8189C6.87809 16.4365 6.87809 19.0541 6.87809 21.6716C6.87809 23.2258 7.69879 23.962 9.43136 23.962C10.1609 23.962 10.9816 23.962 11.8023 23.962C11.8023 23.7166 11.8023 23.4712 11.8023 23.2258C11.8023 21.2626 11.8023 19.3813 11.8023 17.4181C11.8023 16.3547 12.167 16.0275 13.3525 16.0275C15.085 16.0275 16.7264 16.0275 18.459 16.0275C19.5533 16.0275 19.918 16.3547 19.918 17.3363C19.918 19.2995 19.918 21.2626 19.918 23.2258C19.918 23.3894 19.918 23.6348 19.918 23.7984C21.0123 23.7984 22.1065 23.8802 23.2008 23.7984C24.0215 23.7166 24.6598 22.9804 24.751 22.2442C24.751 22.0806 24.8422 21.917 24.8422 21.6716C24.9334 21.2626 25.4805 20.9354 25.9364 20.9354C26.4836 20.9354 26.9395 21.3444 26.9395 21.8352C27.0307 23.8802 25.1157 25.6798 22.6537 25.7616C21.4682 25.7616 20.2828 25.7616 19.0973 25.7616C18.1854 25.7616 17.8207 25.4344 17.8207 24.6164C17.8207 22.5714 17.8207 20.6083 17.8207 18.5633C17.8207 18.3997 17.8207 18.1543 17.8207 17.9089C16.544 17.9089 15.3586 17.9089 13.9908 17.9089C13.9908 18.0725 13.9908 18.3179 13.9908 18.4815C13.9908 20.5265 13.9908 22.5714 13.9908 24.6164C13.9908 25.4344 13.626 25.7616 12.7141 25.7616C11.2551 25.7616 9.79612 25.8434 8.3371 25.6798C5.96621 25.5162 4.5072 23.962 4.5072 22.0806C4.5072 19.3813 4.5072 16.6819 4.5072 13.9825C4.5072 13.7371 4.5072 13.5735 4.5072 13.2463ZM22.3801 4.57556C22.3801 5.06635 22.3801 5.55715 22.3801 5.96615C22.3801 6.45694 22.2889 6.86594 21.7418 7.11134C21.1946 7.27494 20.7387 7.11134 20.374 6.78414C19.1885 5.72075 17.9119 4.65736 16.6352 3.51216C15.8145 2.85777 15.4498 2.85777 14.6291 3.51216C11.7111 5.96615 8.79305 8.50193 5.96621 10.9559C5.87502 11.0377 5.78383 11.2013 5.60146 11.2831C12.2582 11.2831 18.9149 11.2831 25.4805 11.2831C24.5686 10.7105 24.4774 9.81072 24.4774 8.91093C24.4774 7.68394 24.4774 6.37514 24.4774 5.14815C24.4774 4.98455 24.4774 4.73916 24.4774 4.57556C23.7479 4.57556 23.1096 4.57556 22.3801 4.57556Z" fill="#FE7A3E"/>
<circle cx="15.582" cy="33.5742" r="2" fill="#FE7A3E"/>
</svg>
