<svg width="26" height="34" viewBox="0 0 26 34" fill="none" xmlns="http://www.w3.org/2000/svg">
<path d="M25.5878 14.8352C25.5878 17.1775 25.5878 19.5199 25.5878 21.9292C25.5878 22.7323 25.3201 23 24.5839 23C22.777 23 21.0369 23 19.2299 23C18.4938 23 18.2261 22.7992 18.2261 22.0631C18.2261 17.3114 18.2261 12.5597 18.2261 7.80804C18.2261 7.00494 18.4268 6.87109 19.163 6.87109C20.97 6.87109 22.777 6.87109 24.5839 6.87109C25.3201 6.87109 25.5209 7.07187 25.5209 7.80804C25.5878 10.0835 25.5878 12.4259 25.5878 14.8352ZM19.6984 8.27652C19.6984 8.81192 19.6984 9.21347 19.6984 9.68194C21.1708 9.68194 22.5762 9.68194 24.0485 9.68194C24.0485 9.21347 24.0485 8.74499 24.0485 8.27652C22.6431 8.27652 21.2377 8.27652 19.6984 8.27652ZM24.0485 12.6266C24.0485 12.0912 24.0485 11.6897 24.0485 11.2212C22.5762 11.2212 21.1708 11.2212 19.6984 11.2212C19.6984 11.6897 19.6984 12.1582 19.6984 12.6266C21.1708 12.6266 22.6431 12.6266 24.0485 12.6266ZM24.1155 15.5713C24.1155 15.0359 24.1155 14.5675 24.1155 14.1659C22.6431 14.1659 21.1708 14.1659 19.7653 14.1659C19.7653 14.7013 19.7653 15.1029 19.7653 15.5713C21.2377 15.5713 22.6431 15.5713 24.1155 15.5713ZM19.6984 18.516C21.1708 18.516 22.6431 18.516 24.0485 18.516C24.0485 18.0476 24.0485 17.5791 24.0485 17.1106C22.5762 17.1106 21.1708 17.1106 19.6984 17.1106C19.6984 17.5791 19.6984 18.0476 19.6984 18.516ZM24.1155 20.0553C22.6431 20.0553 21.1708 20.0553 19.6984 20.0553C19.6984 20.5238 19.6984 20.9923 19.6984 21.4607C21.1708 21.4607 22.6431 21.4607 24.1155 21.4607C24.1155 20.9923 24.1155 20.5238 24.1155 20.0553Z" fill="#B7C1CB"/>
<path d="M9.32495 17.7797C9.32495 16.4412 9.32495 15.0358 9.32495 13.6973C9.32495 12.8942 9.59265 12.6265 10.3288 12.6265C12.1358 12.6265 13.8758 12.6265 15.6828 12.6265C16.419 12.6265 16.6867 12.8942 16.6867 13.6303C16.6867 16.3743 16.6867 19.1851 16.6867 21.929C16.6867 22.6652 16.419 22.9329 15.6828 22.9329C13.8758 22.9329 12.0689 22.9329 10.2619 22.9329C9.59265 22.9329 9.32495 22.6652 9.32495 21.996C9.32495 20.5905 9.32495 19.1851 9.32495 17.7797ZM10.7973 15.5712C12.2696 15.5712 13.742 15.5712 15.2143 15.5712C15.2143 15.1027 15.2143 14.6342 15.2143 14.1657C13.742 14.1657 12.2696 14.1657 10.7973 14.1657C10.7973 14.6342 10.7973 15.0358 10.7973 15.5712ZM10.7973 18.5159C12.2696 18.5159 13.742 18.5159 15.2143 18.5159C15.2143 18.0474 15.2143 17.5789 15.2143 17.1104C13.742 17.1104 12.2696 17.1104 10.7973 17.1104C10.7973 17.5789 10.7973 18.0474 10.7973 18.5159ZM10.7973 20.0551C10.7973 20.5905 10.7973 21.059 10.7973 21.4606C12.2696 21.4606 13.742 21.4606 15.1474 21.4606C15.1474 20.9921 15.1474 20.5236 15.1474 20.0551C13.742 20.0551 12.2696 20.0551 10.7973 20.0551Z" fill="#B7C1CB"/>
<path d="M4.10491 22.933C3.16796 22.933 2.29794 22.933 1.36099 22.933C0.758666 22.933 0.490967 22.6653 0.490967 22.063C0.490967 20.1891 0.490967 18.3152 0.490967 16.4413C0.490967 15.9059 0.758666 15.5713 1.29407 15.5713C3.23489 15.5713 5.10879 15.5713 7.04961 15.5713C7.58501 15.5713 7.85271 15.9059 7.85271 16.4413C7.85271 18.3152 7.85271 20.1891 7.85271 22.063C7.85271 22.6653 7.51808 22.933 6.91576 22.933C5.97881 22.933 5.04186 22.933 4.10491 22.933ZM6.31344 17.1106C4.84109 17.1106 3.43566 17.1106 1.96332 17.1106C1.96332 17.579 1.96332 18.0475 1.96332 18.516C3.43566 18.516 4.84109 18.516 6.31344 18.516C6.31344 18.0475 6.31344 17.579 6.31344 17.1106ZM1.96332 20.0553C1.96332 20.5237 1.96332 20.9922 1.96332 21.4607C3.43566 21.4607 4.84109 21.4607 6.31344 21.4607C6.31344 20.9922 6.31344 20.5237 6.31344 20.0553C4.84109 20.0553 3.43566 20.0553 1.96332 20.0553Z" fill="#B7C1CB"/>
<path d="M20.167 1.24927C20.4347 0.981566 20.4347 0.580016 20.1001 0.178466C19.6986 -0.223083 19.0962 0.178466 19.0962 0.178466C17.0216 2.25314 15.0138 4.19396 13.0061 6.20171C12.3368 5.53246 11.6006 4.86321 10.9314 4.12704C10.2621 3.45779 9.92752 3.45779 9.25827 4.12704C7.51822 5.86708 5.71125 7.67406 3.9712 9.41411C3.83735 9.54796 3.7035 9.61488 3.7035 9.74873C3.63657 10.0834 3.56965 10.4849 3.7035 10.7526C3.90427 11.0872 4.37275 11.0203 4.70737 10.8195C4.84122 10.7526 4.97507 10.6188 5.10892 10.4849C6.6482 8.94563 8.18747 7.40636 9.72674 5.80016C9.86059 5.66631 9.99444 5.53246 10.1283 5.46554C10.8645 6.20171 11.6006 6.87096 12.2699 7.54021C12.9391 8.20946 13.2738 8.20946 13.943 7.54021C15.9508 5.53246 18.0254 3.39086 20.167 1.24927Z" fill="#B7C1CB"/>
</svg>
