<svg xmlns="http://www.w3.org/2000/svg" version="1.1" xmlns:xlink="http://www.w3.org/1999/xlink" width="512" height="512" x="0" y="0" viewBox="0 0 1024 1024" style="enable-background:new 0 0 512 512" xml:space="preserve" class=""><g><path d="M942.2 850.5H116.8c-11.2 0-22.4-.1-33.6 0h-1.5l40 40V164.2c0-9.8.1-19.7 0-29.5v-1.3c0-20.9-18.4-41-40-40-21.7 1-40 17.6-40 40V859.7c0 9.8-.1 19.7 0 29.5v1.3c0 21.6 18.3 40 40 40h825.4c11.2 0 22.4.1 33.6 0h1.5c20.9 0 41-18.4 40-40-.9-21.7-17.5-40-40-40z" opacity="1" data-original="#000000" class=""></path><path d="M206.5 518.3h86.3v252.5h-86.3z" opacity="1" data-original="#000000" class=""></path><path d="M292.7 750.8h-86.3l20 20V518.2l-20 20h86.3l-20-20v252.6c0 10.5 9.2 20.5 20 20s20-8.8 20-20V518.2c0-10.8-9.2-20-20-20h-86.3c-10.8 0-20 9.2-20 20v252.6c0 10.8 9.2 20 20 20h86.3c10.5 0 20.5-9.2 20-20-.4-10.8-8.7-20-20-20zM394.2 315.9h86.3v454.9h-86.3z" opacity="1" data-original="#000000" class=""></path><path d="M480.5 750.8h-86.3l20 20V372.1c0-18.4.8-37 0-55.4v-.8l-20 20h86.3l-20-20V714.6c0 18.4-.5 37 0 55.4v.8c0 10.5 9.2 20.5 20 20s20-8.8 20-20V372.1c0-18.4.5-37 0-55.4v-.8c0-10.8-9.2-20-20-20h-86.3c-10.8 0-20 9.2-20 20V714.6c0 18.4-.5 37 0 55.4v.8c0 10.8 9.2 20 20 20h86.3c10.5 0 20.5-9.2 20-20s-8.8-20-20-20zM582 412.3h86.3v358.5H582z" opacity="1" data-original="#000000" class=""></path><path d="M668.3 750.8H582l20 20V456.4c0-14.5.6-29.1 0-43.6v-.6l-20 20h86.3l-20-20v314.4c0 14.5-.4 29.1 0 43.6v.6c0 10.5 9.2 20.5 20 20s20-8.8 20-20V456.4c0-14.5.4-29.1 0-43.6v-.6c0-10.8-9.2-20-20-20H582c-10.8 0-20 9.2-20 20v314.4c0 14.5-.4 29.1 0 43.6v.6c0 10.8 9.2 20 20 20h86.3c10.5 0 20.5-9.2 20-20s-8.8-20-20-20zM769.8 190.7h86.3v580.1h-86.3z" opacity="1" data-original="#000000" class=""></path><path d="M856.1 750.8h-86.3l20 20V262.1c0-23.4.9-47 0-70.5v-1l-20 20h86.3l-20-20V699.3c0 23.5-.5 47 0 70.5v1c0 10.5 9.2 20.5 20 20s20-8.8 20-20V262.1c0-23.5.5-47 0-70.5v-1c0-10.8-9.2-20-20-20h-86.3c-10.8 0-20 9.2-20 20V699.3c0 23.5-.5 47 0 70.5v1c0 10.8 9.2 20 20 20h86.3c10.5 0 20.5-9.2 20-20s-8.8-20-20-20z" opacity="1" data-original="#000000" class=""></path></g></svg>