<svg xmlns="http://www.w3.org/2000/svg" version="1.1" xmlns:xlink="http://www.w3.org/1999/xlink" width="512" height="512" x="0" y="0" viewBox="0 0 20 20" style="enable-background:new 0 0 512 512" xml:space="preserve" class="hovered-paths"><g><path d="M17.1 2.9C15.2 1 12.7 0 10 0 4.5 0 0 4.5 0 10s4.5 10 10 10 10-4.5 10-10c0-2.7-1-5.2-2.9-7.1zM11 2.1c1.4.2 2.8.7 3.9 1.6L13.6 5 11 7.6zm-2 0V9H2.1C2.5 5.4 5.4 2.5 9 2.1zM10 18c-4.1 0-7.4-3.1-7.9-7H10c.1 0 .3 0 .4-.1.1-.1.2-.1.3-.2l5.6-5.6C17.4 6.5 18 8.2 18 10c0 4.4-3.6 8-8 8z" opacity="1" data-original="#2b2a3d" class="hovered-path"></path></g></svg>