<svg xmlns="http://www.w3.org/2000/svg" version="1.1" xmlns:xlink="http://www.w3.org/1999/xlink" width="512" height="512" x="0" y="0" viewBox="0 0 32 32" style="enable-background:new 0 0 512 512" xml:space="preserve" class=""><g><path d="M12.119 24.119a1.986 1.986 0 0 1-1.414-.586l-6.119-6.119C4.208 17.036 4 16.534 4 16s.208-1.036.586-1.414l6.119-6.119c.378-.378.88-.586 1.414-.586s1.036.208 1.414.586.586.88.586 1.414-.208 1.036-.586 1.414L10.828 14H26c1.103 0 2 .897 2 2s-.897 2-2 2H10.828l2.705 2.705c.378.378.586.88.586 1.414s-.208 1.036-.586 1.414-.88.586-1.414.586z" fill="#000000" opacity="1" data-original="#000000" class=""></path></g></svg>