<svg xmlns="http://www.w3.org/2000/svg" version="1.1" xmlns:xlink="http://www.w3.org/1999/xlink" width="512" height="512" x="0" y="0" viewBox="0 0 64 64" style="enable-background:new 0 0 512 512" xml:space="preserve" class=""><g><g data-name="Layer 2"><path d="m56.48 28.9-3.443-.573a2.99 2.99 0 0 1-2.111-1.471l-4.755-8.32A9.019 9.019 0 0 0 38.357 14H21.643a9.019 9.019 0 0 0-7.814 4.535l-4.85 8.487A3.016 3.016 0 0 1 7.1 28.444l-3.314.828A4.985 4.985 0 0 0 .245 32.6c-.011.026-.012.057-.021.084A4.98 4.98 0 0 0 0 34.123V41a5.006 5.006 0 0 0 5 5h3.685a6.985 6.985 0 0 0 12.63 0h21.37a6.985 6.985 0 0 0 12.63 0H59a5.006 5.006 0 0 0 5-5v-3.223a8.973 8.973 0 0 0-7.52-8.877Zm4.414 5.1a6.976 6.976 0 0 1 .877 2H61a3.01 3.01 0 0 1-2.118-.872 3.057 3.057 0 0 1-.71-1.128ZM2.01 34h1.709l-.5 2H2v-1.877c0-.042.009-.082.01-.123ZM15 48a5 5 0 1 1 5-5 5.006 5.006 0 0 1-5 5Zm34 0a5 5 0 1 1 5-5 5.006 5.006 0 0 1-5 5Zm10-4h-3.08a7 7 0 1 0-13.84 0H21.92a7 7 0 1 0-13.84 0H5a3 3 0 0 1-3-3v-3h2a1 1 0 0 0 .97-.757l1-4A1 1 0 0 0 5 32H2.889a2.983 2.983 0 0 1 1.383-.787l3.315-.829a5.026 5.026 0 0 0 3.128-2.37l4.85-8.487A7.016 7.016 0 0 1 21.643 16h16.714a7.016 7.016 0 0 1 6.078 3.527l4.754 8.32a4.98 4.98 0 0 0 3.519 2.453l3.443.574A7.013 7.013 0 0 1 58.959 32H57a1 1 0 0 0-1 1 4.995 4.995 0 0 0 5 5h1v3a3 3 0 0 1-3 3Z" opacity="1" data-original="#000000" class=""></path><path d="M45.458 23.485a1 1 0 0 0-1.715 1.03L45.234 27H33v-8h5.735a3.015 3.015 0 0 1 2.573 1.457l.634 1.058a1 1 0 0 0 1.715-1.03l-.635-1.058A5.023 5.023 0 0 0 38.735 17H32a1 1 0 0 0-1 1v10a1 1 0 0 0 1 1h15a1 1 0 0 0 .857-1.515ZM28 17h-6.735a5.023 5.023 0 0 0-4.287 2.427l-4.835 8.058A1 1 0 0 0 13 29h15a1 1 0 0 0 1-1V18a1 1 0 0 0-1-1Zm-1 10H14.766l3.926-6.543A3.015 3.015 0 0 1 21.265 19H27ZM34 30h-2a1 1 0 0 0 0 2h2a1 1 0 0 0 0-2ZM15 30h-2a1 1 0 0 0 0 2h2a1 1 0 0 0 0-2ZM49 40a3 3 0 1 0 3 3 3 3 0 0 0-3-3Zm0 4a1 1 0 1 1 1-1 1 1 0 0 1-1 1ZM15 40a3 3 0 1 0 3 3 3 3 0 0 0-3-3Zm0 4a1 1 0 1 1 1-1 1 1 0 0 1-1 1Z" opacity="1" data-original="#000000" class=""></path></g></g></svg>