<svg xmlns="http://www.w3.org/2000/svg" version="1.1" xmlns:xlink="http://www.w3.org/1999/xlink" width="512" height="512" x="0" y="0" viewBox="0 0 609.623 609.623" style="enable-background:new 0 0 512 512" xml:space="preserve" class=""><g><path d="M415.041 386.094h-220.48a21.826 21.826 0 0 0-13.971 38.61l32.93 27.433a21.831 21.831 0 0 0 13.991 5.08h154.58a21.797 21.797 0 0 0 13.981-5.08l32.94-27.433a21.824 21.824 0 0 0-13.971-38.61zm1.016 23.004-32.94 27.433a1.543 1.543 0 0 1-1.016.345h-154.57a1.502 1.502 0 0 1-1.016-.356l-32.94-27.433a1.351 1.351 0 0 1-.457-1.687 1.34 1.34 0 0 1 1.422-1.016h220.48a1.34 1.34 0 0 1 1.422 1.016c.29.596.105 1.315-.437 1.697h.052zM487.993 391.175l-33.042 27.433a21.803 21.803 0 0 0 13.97 38.609h79.739c11.223 0 20.321-9.098 20.321-20.321v-30.481c0-11.223-9.098-20.321-20.321-20.321h-46.687a21.947 21.947 0 0 0-13.98 5.081zm60.668 15.24v30.481h-79.739a1.341 1.341 0 0 1-1.433-1.016 1.29 1.29 0 0 1 .457-1.636l33.052-27.494a1.486 1.486 0 0 1 1.016-.356zM121.63 391.175a21.895 21.895 0 0 0-13.93-5.08H60.962c-11.223 0-20.321 9.098-20.321 20.321v30.481c0 11.223 9.098 20.321 20.321 20.321h79.718a21.814 21.814 0 0 0 13.981-38.609zm20.504 44.705a1.341 1.341 0 0 1-1.433 1.016H60.962v-30.481H107.7c.371-.013.734.114 1.016.356l33.062 27.494a1.3 1.3 0 0 1 .356 1.615z" opacity="1" data-original="#000000" class=""></path><g fill-rule="evenodd" clip-rule="evenodd"><path d="M132.085 487.698H60.962c-5.611 0-10.16 4.549-10.16 10.16s4.549 10.16 10.16 10.16h71.123c5.611 0 10.16-4.549 10.16-10.16s-4.549-10.16-10.16-10.16zM548.661 487.698h-71.123c-5.611 0-10.16 4.549-10.16 10.16s4.549 10.16 10.16 10.16h71.123c5.611 0 10.16-4.549 10.16-10.16s-4.549-10.16-10.16-10.16zM396.255 487.698H213.368c-5.611 0-10.16 4.549-10.16 10.16s4.549 10.16 10.16 10.16h182.887c5.611 0 10.16-4.549 10.16-10.16s-4.549-10.16-10.16-10.16z" opacity="1" data-original="#000000" class=""></path></g><path d="M609.623 294.651c0-16.834-13.647-30.481-30.481-30.481h-20.321a30.317 30.317 0 0 0-22.993 10.689l-19.071-57.142a50.69 50.69 0 0 0-29.252-31.07c0-1.27.193-2.489.193-3.759C487.698 81.881 405.817 0 304.811 0S121.925 81.881 121.925 182.887c0 1.27.163 2.489.193 3.759a50.661 50.661 0 0 0-29.242 31.03l-19.081 57.183a30.317 30.317 0 0 0-22.993-10.689H30.481C13.647 264.17 0 277.817 0 294.651s13.647 30.481 30.481 30.481h16.114L9.002 362.726A30.349 30.349 0 0 0 0 384.367v133.812a30.482 30.482 0 0 0 20.321 28.612v32.351c0 16.834 13.647 30.481 30.481 30.481h71.123c16.834 0 30.481-13.647 30.481-30.481v-30.481h304.811v30.481c0 16.834 13.647 30.481 30.481 30.481h71.123c16.834 0 30.481-13.647 30.481-30.481v-32.351a30.483 30.483 0 0 0 20.321-28.612V384.367a30.352 30.352 0 0 0-8.972-21.611l-37.593-37.593h16.084a30.484 30.484 0 0 0 30.481-30.512zm-112.161-70.543 26.935 80.704h-83.661a181.978 181.978 0 0 0 44.929-96.066 30.17 30.17 0 0 1 11.797 15.362zM304.811 20.321c89.783 0 162.566 72.783 162.566 162.566s-72.783 162.566-162.566 162.566-162.566-72.783-162.566-162.566c.107-89.739 72.828-162.46 162.566-162.566zm-192.64 203.736a30.139 30.139 0 0 1 11.786-15.312 181.981 181.981 0 0 0 44.929 96.066H85.225zm-81.69 80.754c-5.611 0-10.16-4.549-10.16-10.16s4.549-10.16 10.16-10.16h20.321c5.611 0 10.16 4.549 10.16 10.16v10.16zm101.604 274.331c0 5.611-4.549 10.16-10.16 10.16H50.802c-5.611 0-10.16-4.549-10.16-10.16v-30.481h91.443zm436.896 0c0 5.611-4.549 10.16-10.16 10.16h-71.123c-5.611 0-10.16-4.549-10.16-10.16v-30.481h91.443zm17.273-202.019a10.157 10.157 0 0 1 3.048 7.244v133.812c0 5.611-4.549 10.16-10.16 10.16H30.481c-5.611 0-10.16-4.549-10.16-10.16V384.367a10.157 10.157 0 0 1 3.048-7.244l51.96-51.991h114.812c66.866 54.189 162.535 54.189 229.401 0h114.812zm-37.593-72.312v-10.16c0-5.611 4.549-10.16 10.16-10.16h20.321c5.611 0 10.16 4.549 10.16 10.16s-4.549 10.16-10.16 10.16z" opacity="1" data-original="#000000" class=""></path><path d="M214.384 177.644a20.252 20.252 0 0 0 14.367-5.944l5.334-5.334 22.109 22.109-5.08 5.08c-28.871-3.136-54.838 17.674-58.067 46.535a18.035 18.035 0 0 0 26.417 16.795c6.635-3.536 9.144-1.016 10.75.701 1.605 1.717 4.145 4.064.671 10.526a17.955 17.955 0 0 0 15.707 26.539h.61a45.44 45.44 0 0 0 23.877-8.504 53.475 53.475 0 0 0 22.881-49.41l5.263-5.273 57.233 57.233c7.958 7.953 20.856 7.953 28.815 0l14.316-14.367c7.906-7.931 7.906-20.762 0-28.693l-57.233-57.223 16.064-16.074a50.151 50.151 0 0 0 41.83-14.387 49.868 49.868 0 0 0 15.921-32.158v-.071a18.026 18.026 0 0 0-26.417-16.806c-6.645 3.546-9.215.945-10.8-.65s-4.176-4.186-.539-10.719a18.095 18.095 0 0 0-.701-18.014 17.214 17.214 0 0 0-15.677-8.413 45.462 45.462 0 0 0-23.887 8.514 53.403 53.403 0 0 0-22.81 49.694l-16.013 16.023-22.109-22.109 9.022-9.022a20.32 20.32 0 0 0-9.439-34.077l-34.494-8.626A20.425 20.425 0 0 0 223 76.863l-44.533 44.543a20.32 20.32 0 0 0 0 28.744l21.56 21.56a20.218 20.218 0 0 0 14.357 5.934zm170.796 82.299-14.326 14.387-57.254-57.203 14.377-14.377zM333.443 139.98a10.161 10.161 0 0 0 2.693-9.581 33.062 33.062 0 0 1 13.584-34.047 28.54 28.54 0 0 1 8.799-4.237 28.053 28.053 0 0 0 36.658 36.578 35.143 35.143 0 0 1-9.378 14.895 29.29 29.29 0 0 1-28.286 7.874 10.16 10.16 0 0 0-9.683 2.662l-71.935 71.936a10.161 10.161 0 0 0-2.713 9.49 33.162 33.162 0 0 1-13.666 33.844 28.753 28.753 0 0 1-8.829 4.237 26.843 26.843 0 0 0-6.096-30.41 26.472 26.472 0 0 0-19.305-8.474 30.739 30.739 0 0 0-11.298 2.256 35.161 35.161 0 0 1 9.388-14.895 29.333 29.333 0 0 1 28.601-7.722 10.162 10.162 0 0 0 9.734-2.652zm-48.485 19.741-14.387 14.387-22.109-22.109 14.387-14.387zM237.377 91.23l34.545 8.586-57.538 57.518-21.56-21.55z" opacity="1" data-original="#000000" class=""></path></g></svg>