<svg xmlns="http://www.w3.org/2000/svg" version="1.1" xmlns:xlink="http://www.w3.org/1999/xlink" width="512" height="512" x="0" y="0" viewBox="0 0 512 512" style="enable-background:new 0 0 512 512" xml:space="preserve" class=""><g><path d="M268.158 84.887c-94.351 0-171.113 76.761-171.113 171.113s76.761 171.113 171.113 171.113S439.27 350.351 439.27 256 362.509 84.887 268.158 84.887zm0 328.388c-86.721 0-157.275-70.554-157.275-157.275S181.437 98.725 268.158 98.725 425.432 169.279 425.432 256s-70.554 157.275-157.274 157.275zm0-270.194c-62.264 0-112.919 50.653-112.919 112.919s50.655 112.919 112.919 112.919c62.261 0 112.917-50.653 112.917-112.919s-50.656-112.919-112.917-112.919zm0 212c-54.633 0-99.081-44.446-99.081-99.081s44.448-99.081 99.081-99.081 99.079 44.446 99.079 99.081-44.446 99.081-99.079 99.081zm6.919-163.387a6.92 6.92 0 0 1-6.919 6.919c-31.644 0-57.39 25.743-57.39 57.387a6.92 6.92 0 0 1-13.838 0c0-39.275 31.953-71.225 71.227-71.225a6.92 6.92 0 0 1 6.92 6.919zM508.572 85.833a6.913 6.913 0 0 0-6.887-.054c-32.185 18.126-53.809 69.405-53.809 127.595 0 16.185 1.646 31.995 4.896 46.991a6.917 6.917 0 0 0 6.761 5.455h1.68v135.901c0 14 11.392 25.392 25.394 25.392 14 0 25.392-11.392 25.392-25.392V91.806a6.91 6.91 0 0 0-3.427-5.973zm-10.41 19.631v146.518h-32.966c-2.311-12.401-3.482-25.36-3.482-38.608 0-45.676 14.547-87.563 36.448-107.91zm-11.556 307.811c-6.372 0-11.554-5.185-11.554-11.554V265.82h23.11v135.901c0 6.369-5.185 11.554-11.556 11.554zM99.414 157.577v-46.405a6.92 6.92 0 0 0-13.838 0v46.405c0 19.779-16.09 35.869-35.869 35.869s-35.869-16.09-35.869-35.869v-46.405A6.92 6.92 0 0 0 0 111.171v46.405c0 18.125 9.783 33.968 24.313 42.653V401.72c0 14 11.392 25.392 25.394 25.392 14 0 25.392-11.392 25.392-25.392V200.23c14.532-8.684 24.315-24.527 24.315-42.653zM61.261 401.721c0 6.369-5.185 11.554-11.556 11.554s-11.554-5.185-11.554-11.554V205.872c3.716.89 7.572 1.412 11.556 1.412 3.983 0 7.839-.521 11.554-1.411zM42.788 157.18V91.806a6.92 6.92 0 0 1 13.838 0v65.374a6.92 6.92 0 0 1-13.838 0zm21.394 0V96.973a6.92 6.92 0 0 1 13.838 0v60.207a6.92 6.92 0 0 1-13.838 0zm-42.788 0V96.973a6.92 6.92 0 0 1 13.838 0v60.207a6.92 6.92 0 0 1-13.838 0z" opacity="1" data-original="#000000" class=""></path></g></svg>