<svg xmlns="http://www.w3.org/2000/svg" version="1.1" xmlns:xlink="http://www.w3.org/1999/xlink" width="512" height="512" x="0" y="0" viewBox="0 0 64 64" style="enable-background:new 0 0 512 512" xml:space="preserve" class=""><g><path d="M59 24.07v-2a3.08 3.08 0 0 0-.94-2.22A3.11 3.11 0 0 0 55.8 19a74.37 74.37 0 0 0-11 1.12l-1.32.26a11.56 11.56 0 0 0-22.94-.51v.52A73.78 73.78 0 0 0 8.2 19 3.11 3.11 0 0 0 5 22.1v2A5 5 0 0 0 1 29v28a5 5 0 0 0 5 5h52a5 5 0 0 0 5-5V29a5 5 0 0 0-4-4.93Zm-36.46-3.92a9.61 9.61 0 0 1 8.37-8.09A10 10 0 0 1 32 12a9.45 9.45 0 0 1 6.36 2.44 9.56 9.56 0 0 1-.56 14.72 6.8 6.8 0 0 0-2.75 5.42A1.43 1.43 0 0 1 33.63 36H33v-7a1 1 0 0 0-.23-.64L29.13 24h5.45l-1.79 1.79a1 1 0 0 0 1.41 1.41l3.5-3.5A1 1 0 0 0 37 22H27a1 1 0 0 0-.77 1.64L31 29.36V36h-.63a1.43 1.43 0 0 1-1.43-1.44 6.83 6.83 0 0 0-2.76-5.41 9.51 9.51 0 0 1-3.64-9ZM7 22.1A1.11 1.11 0 0 1 8.15 21a71.65 71.65 0 0 1 12.34 1.42A11.42 11.42 0 0 0 25 30.73a4.85 4.85 0 0 1 2 3.84A3.43 3.43 0 0 0 30.37 38h3.26a3.44 3.44 0 0 0 3.43-3.46 4.81 4.81 0 0 1 2-3.8 11.46 11.46 0 0 0 4.48-8.32l1.66-.33A72.38 72.38 0 0 1 55.85 21a1.05 1.05 0 0 1 .81.32 1.09 1.09 0 0 1 .33.79V53.9a1.1 1.1 0 0 1-1.05 1.1A66.2 66.2 0 0 0 33 59.43V42h1a1 1 0 0 0 0-2h-4a1 1 0 0 0 0 2h1v17.44A66 66 0 0 0 8.06 55 1.1 1.1 0 0 1 7 53.9ZM3 57V29a3 3 0 0 1 2-2.82V53.9A3.12 3.12 0 0 0 8 57a68.67 68.67 0 0 1 18.51 3H6a3 3 0 0 1-3-3Zm58 0a3 3 0 0 1-3 3H37.48A68.67 68.67 0 0 1 56 57a3.12 3.12 0 0 0 3-3.1V26.15A3 3 0 0 1 61 29Z" opacity="1" data-original="#000000" class=""></path><path d="M10.93 27c1.32.09 2.65.21 3.95.37H15a1 1 0 0 0 .12-2c-1.33-.16-2.7-.29-4.05-.38a1 1 0 0 0-.13 2ZM10.93 31.13a71.76 71.76 0 0 1 7.28.85h.17a1 1 0 0 0 .17-2 73.93 73.93 0 0 0-7.48-.88 1 1 0 1 0-.13 2ZM10 37.07a1 1 0 0 0 .93 1.06A67.5 67.5 0 0 1 26.69 41a1 1 0 0 0 .6-1.91 69.59 69.59 0 0 0-16.23-3 1 1 0 0 0-1.06.98ZM27.3 44a69.6 69.6 0 0 0-16.23-3 1 1 0 0 0-.13 2 67.51 67.51 0 0 1 15.76 2.88 1 1 0 0 0 .6-1.88ZM27.3 49a69.59 69.59 0 0 0-16.23-3 1 1 0 0 0-.13 2 67.5 67.5 0 0 1 15.75 3 1 1 0 0 0 .61-2ZM37 41.06a1 1 0 0 0 .3 0 67.5 67.5 0 0 1 15.76-2.88 1 1 0 0 0-.13-2 69.59 69.59 0 0 0-16.23 3 1 1 0 0 0 .3 2ZM37 45.93a1 1 0 0 0 .3 0A67.51 67.51 0 0 1 53.06 43a1 1 0 0 0-.13-2 69.6 69.6 0 0 0-16.23 3 1 1 0 0 0 .3 2ZM37 51a1 1 0 0 0 .3 0 67.5 67.5 0 0 1 15.76-2.88 1 1 0 0 0-.13-2A69.59 69.59 0 0 0 36.7 49a1 1 0 0 0 .3 2ZM32 7a1 1 0 0 0 1-1V2a1 1 0 0 0-2 0v4a1 1 0 0 0 1 1ZM39.07 9.93a1 1 0 0 0 .71-.29l2.83-2.83A1 1 0 0 0 41.2 5.4l-2.84 2.82a1 1 0 0 0 .71 1.71ZM24.22 9.64a1 1 0 0 0 1.41-1.41l-2.82-2.84A1 1 0 0 0 21.4 6.8Z" opacity="1" data-original="#000000" class=""></path></g></svg>