<svg xmlns="http://www.w3.org/2000/svg" version="1.1" xmlns:xlink="http://www.w3.org/1999/xlink" width="512" height="512" x="0" y="0" viewBox="0 0 512 512" style="enable-background:new 0 0 512 512" xml:space="preserve" class=""><g><path d="m449.603 177.797-50.188-18.267c18.146-14.994 25.894-38.777 20.339-61.377-10.917-44.403-65.056-61.259-99.26-31.022l-34.652 30.632-6.855-45.94c-6.778-45.229-59.141-66.989-95.978-40.039-18.419 13.475-28.217 36.704-23.872 60.29l-47.318-17.222c-23.28-8.475-49.119 3.573-57.594 26.856l-20.49 56.297c-2.829 7.773 1.179 16.369 8.953 19.197l234.084 85.199H50.743c-8.272 0-14.978 6.706-14.978 14.978v209.688c0 24.776 20.157 44.933 44.933 44.933h299.555c24.776 0 44.933-20.157 44.933-44.933V296.42l11.587 4.218c7.737 2.818 16.355-1.147 19.197-8.952l20.491-56.297c8.472-23.283-3.575-49.118-26.858-57.592zM185.541 482.045H80.697c-8.259 0-14.978-6.719-14.978-14.978v-194.71h119.822v209.688zm59.911 0h-29.955V272.357h29.955v209.688zm94.881-392.47c17.375-15.361 44.805-6.744 50.331 15.731 5.893 23.963-17.269 44.741-40.451 36.317l-48.703-17.727 38.823-34.321zM200.695 35.962c18.72-13.694 45.237-2.582 48.668 20.303l7.68 51.445-48.699-17.725c-23.184-8.443-27.563-39.457-7.649-54.023zm7.056 149.44L67.007 134.175l15.368-42.222c2.825-7.761 11.438-11.775 19.198-8.952l126.668 46.103-20.49 56.298zm56.298 20.492L235.9 195.648l20.491-56.297 28.149 10.246-20.491 56.297zm131.18 261.173c0 8.259-6.719 14.978-14.978 14.978H275.408V272.357h83.666l36.156 13.16v181.55zm53.08-241.925-15.367 42.223-140.744-51.227 20.491-56.297 126.669 46.103c7.761 2.825 11.776 11.438 8.951 19.198z" opacity="1" data-original="#000000" class=""></path></g></svg>