<svg xmlns="http://www.w3.org/2000/svg" version="1.1" xmlns:xlink="http://www.w3.org/1999/xlink" width="512" height="512" x="0" y="0" viewBox="0 0 64 64" style="enable-background:new 0 0 512 512" xml:space="preserve" class=""><g><path d="m61.296 30.045-6.022-1.87a15.978 15.978 0 0 0-1.467-2.405c7.266-5.003 4.155-13.057 4.121-13.141a1.002 1.002 0 0 0-1.191-.593c-7.454 2.035-10.19 5.414-11.188 7.76a15.86 15.86 0 0 0-1.825-.46 10 10 0 1 0-19.448.002 16.495 16.495 0 0 0-13.215 14.844c-.352.071-.689.13-.992.166a3.576 3.576 0 0 0-.325-2.755A3.127 3.127 0 0 0 7 30a2.764 2.764 0 0 0-2.57 1.588 3.018 3.018 0 0 0 .45 3.224 3.785 3.785 0 0 0 .969.83A10.156 10.156 0 0 1 3 36a1 1 0 0 0 0 2c2.953 0 4.68-.773 5.68-1.597a11.374 11.374 0 0 0 2.344-.18 16.486 16.486 0 0 0 2.33 7.775 16.67 16.67 0 0 0 5.47 5.532l-1.785 6.193A1 1 0 0 0 18 57h8a1.001 1.001 0 0 0 .929-.628L28.677 52h9.646l1.748 4.372A1.001 1.001 0 0 0 41 57h8a1 1 0 0 0 .955-1.296l-1.748-5.63a16.707 16.707 0 0 0 7.53-8.272l5.578-1.853A1 1 0 0 0 62 39v-8a1 1 0 0 0-.704-.955ZM7.97 34.218c-.017.03-.035.06-.054.088a2.506 2.506 0 0 1-1.489-.762 1.035 1.035 0 0 1-.188-1.101.801.801 0 0 1 .793-.443h.001a1.135 1.135 0 0 1 .979.593 1.612 1.612 0 0 1-.042 1.625ZM34 9a7.996 7.996 0 0 1 3.86 15h-7.72A7.996 7.996 0 0 1 34 9Zm26 29.278-5.335 1.773a1 1 0 0 0-.62.594 14.67 14.67 0 0 1-7.467 8.009 1 1 0 0 0-.533 1.202L47.642 55h-5.965l-1.748-4.372A1.001 1.001 0 0 0 39 50H28a1.001 1.001 0 0 0-.929.628L25.323 55h-5.994l1.632-5.663a1 1 0 0 0-.476-1.152 14.652 14.652 0 0 1-5.418-5.22 14.483 14.483 0 0 1 9.895-21.719c.045.095.08.196.128.29A10.074 10.074 0 0 0 26.878 24H25a1 1 0 0 0 0 2h18a1 1 0 0 0 0-2h-1.878a10.059 10.059 0 0 0 1.787-2.461c.047-.092.08-.19.124-.282a13.703 13.703 0 0 1 2.754.75 1 1 0 0 0 1.34-.67c.382-1.433 2.042-4.91 9.214-7.106a8.915 8.915 0 0 1-4.512 10.424 1 1 0 0 0-.258 1.516 13.969 13.969 0 0 1 2.08 3.247 1 1 0 0 0 .613.537L60 31.736Z"  opacity="1" data-original="#000000"></path><path d="M47 29a3.003 3.003 0 0 0-3 3 1 1 0 0 0 2 0 1 1 0 0 1 2 0 1 1 0 0 0 2 0 3.003 3.003 0 0 0-3-3ZM33 21.855V22a1 1 0 0 0 2 0v-.145a2.844 2.844 0 0 0 .422-5.262l-1.95-.974A.854.854 0 0 1 33.854 14h.292a.855.855 0 0 1 .854.854V15a1 1 0 0 0 2 0v-.146a2.848 2.848 0 0 0-2-2.709V12a1 1 0 0 0-2 0v.145a2.844 2.844 0 0 0-.422 5.262l1.95.974A.854.854 0 0 1 34.146 20h-.292a.855.855 0 0 1-.854-.854V19a1 1 0 0 0-2 0v.146a2.848 2.848 0 0 0 2 2.709Z"  opacity="1" data-original="#000000"></path></g></svg>