<svg xmlns="http://www.w3.org/2000/svg" version="1.1" xmlns:xlink="http://www.w3.org/1999/xlink" width="512" height="512" x="0" y="0" viewBox="0 0 512 512" style="enable-background:new 0 0 512 512" xml:space="preserve" class=""><g><path d="M366 0H146c-20.678 0-37.5 16.822-37.5 37.5v437c0 20.678 16.822 37.5 37.5 37.5h220c20.678 0 37.5-16.822 37.5-37.5v-437C403.5 16.822 386.678 0 366 0zm22.5 407H176a7.5 7.5 0 0 0 0 15h212.5v52.5c0 12.407-10.093 22.5-22.5 22.5H146c-12.407 0-22.5-10.093-22.5-22.5V422H146a7.5 7.5 0 0 0 0-15h-22.5V75h265v332zm0-347h-265V37.5c0-12.407 10.093-22.5 22.5-22.5h220c12.407 0 22.5 10.093 22.5 22.5V60z" opacity="1" data-original="#000000" class=""></path><path d="M286 30h-30a7.5 7.5 0 0 0 0 15h30a7.5 7.5 0 0 0 0-15zM256 437c-12.407 0-22.5 10.093-22.5 22.5S243.593 482 256 482s22.5-10.093 22.5-22.5S268.407 437 256 437zm0 30c-4.136 0-7.5-3.364-7.5-7.5s3.364-7.5 7.5-7.5 7.5 3.364 7.5 7.5-3.364 7.5-7.5 7.5z" opacity="1" data-original="#000000" class=""></path><circle cx="226" cy="37.5" r="7.5" opacity="1" data-original="#000000" class=""></circle></g></svg>