<svg xmlns="http://www.w3.org/2000/svg" version="1.1" xmlns:xlink="http://www.w3.org/1999/xlink" width="512" height="512" x="0" y="0" viewBox="0 0 64 64" style="enable-background:new 0 0 512 512" xml:space="preserve" class=""><g><linearGradient id="a" x1="2.998" x2="60.998" y1="32" y2="32" gradientUnits="userSpaceOnUse"><stop offset="0" stop-color="#096fe0"></stop><stop offset=".158" stop-color="#167ce3"></stop><stop offset="1" stop-color="#5ec3f6"></stop></linearGradient><path fill="url(#a)" d="M19.58 42.104c1.157 8.213 3.715 14.781 7.038 18.23-10.043-1.879-18.27-8.917-21.773-18.23zm17.802 18.23c10.043-1.879 18.27-8.917 21.773-18.23H44.421c-1.157 8.213-3.716 14.781-7.039 18.23zm22.485-36.302h-15.18c.275 2.532.424 5.202.424 7.968s-.149 5.436-.425 7.967h15.18c1.509-5.016 1.509-10.918 0-15.935zm-.712-2.136c-3.503-9.313-11.73-16.351-21.773-18.23 3.323 3.449 5.882 10.017 7.039 18.23zM26.618 3.666c-10.043 1.879-18.27 8.917-21.773 18.23H19.58c1.157-8.213 3.715-14.781 7.038-18.23zM18.89 32c0-2.766.148-5.436.424-7.968H4.134C3.39 26.564 2.998 29.234 2.998 32s.393 5.436 1.136 7.967h15.18A73.67 73.67 0 0 1 18.89 32zm2.834 10.104c3.872 24.838 16.682 24.832 20.552 0H21.724zM21.013 32c0 2.82.148 5.479.435 7.967h21.104c.287-2.488.435-5.147.435-7.967s-.148-5.479-.435-7.968H21.448A69.746 69.746 0 0 0 21.013 32zm21.263-10.104c-3.871-24.838-16.682-24.832-20.552 0h20.552z" opacity="1" data-original="url(#a)" class=""></path></g></svg>